<svg width="103" height="102" viewBox="0 0 103 102" fill="none" xmlns="http://www.w3.org/2000/svg">
<path d="M6.84425 98.2019C8.64364 100.152 16.0552 96.7513 21.9052 94.0245C26.2888 91.9873 43.8308 84.7897 52.5503 81.0562C54.9046 80.0495 58.329 78.7336 60.7942 75.4915C62.982 72.6062 68.7845 60.3513 57.1003 47.9379C45.2418 35.3342 33.0266 38.8141 28.4607 42.0482C25.7735 43.9507 23.5857 48.2391 22.6028 50.419C18.4491 59.63 12.5278 76.5062 10.118 83.1409C8.35034 88.0318 5.06071 96.2678 6.84425 98.2019Z" fill="#FFC107"/>
<path d="M21.4297 53.1934C21.5406 54.5726 21.8181 56.8159 22.7693 61.136C23.4193 64.1007 24.4815 67.208 25.3455 69.261C27.9376 75.436 31.576 77.9251 35.262 79.9226C41.5242 83.3153 45.7809 83.9495 45.7809 83.9495L40.676 86.0342C40.676 86.0342 37.5845 85.3921 33.3675 83.3153C29.3486 81.3336 25.1632 77.9806 22.1034 71.4171C20.7797 68.5714 20.0108 65.8129 19.5669 63.6251C19.0199 60.9141 18.9327 59.3763 18.9327 59.3763L21.4297 53.1934ZM15.1595 69.269C15.1595 69.269 15.7937 74.4135 20.0425 80.9056C25.0205 88.4995 31.9723 89.744 31.9723 89.744L27.351 91.6464C27.351 91.6464 22.1906 90.069 17.2839 83.3708C14.2242 79.1934 13.3681 74.1995 13.3681 74.1995L15.1595 69.269ZM10.7601 81.4604C10.7601 81.4604 11.9175 85.8995 14.4541 89.2129C17.4742 93.1684 21.3187 94.3178 21.3187 94.3178L17.7754 95.8873C17.7754 95.8873 15.0882 95.3245 12.1473 91.5989C9.91198 88.769 9.27783 85.519 9.27783 85.519L10.7601 81.4604Z" fill="#FF8F00"/>
<path opacity="0.44" d="M8.83424 92.7322C8.6757 92.3755 8.6757 91.9712 8.84217 91.6224L29.0318 49.7529L32.3531 62.2377L11.1092 92.9224C10.5385 93.7785 9.25436 93.6676 8.83424 92.7322Z" fill="#FFFDE7"/>
<path d="M33.9544 66.4311C43.3874 77.4652 54.1282 76.086 57.7032 73.2957C61.2862 70.4976 64.116 60.8823 54.7227 50.0305C44.8776 38.6634 33.7325 41.9055 31.1563 44.3628C28.5801 46.8201 25.2984 56.3085 33.9544 66.4311Z" fill="url(#paint0_linear_21008_48)"/>
<defs>
<linearGradient id="paint0_linear_21008_48" x1="59.9021" y1="49.5065" x2="36.3063" y2="63.6638" gradientUnits="userSpaceOnUse">
<stop offset="0.024" stop-color="#8F4700"/>
<stop offset="1" stop-color="#703E2D"/>
</linearGradient>
</defs>
</svg>
